# xmcd
#
# Track frame offsets:
#	182
#	11185
#	25027
#	38717
#	52830
#	66207
#	80772
#	94885
#	105612
#	117662
#	133405
#	144927
#	157292
#	170015
#	182822
#	189747
#
# Disc length: 2741 seconds
#
# Revision: 1
# Processed by: cddbd v1.5.1PL2 Copyright (c) Steve Scherf et al.
# Submitted via: EasyCDDAExtractor 7.0.6.1
#
DISCID=e90ab310
DTITLE=Compilation - Kings Of Country
DYEAR=1900
DGENRE=Country
TTITLE0=Johnny Russell - Act Naturally
TTITLE1=Don Williams - Where I go From Here
TTITLE2=Faron Young - Swinging Doors
TTITLE3=Willie Nelson - A Moment Isn't Very Long
TTITLE4=Johnny Russell - Goodhearted Woman
TTITLE5=Freddy Fender - Wasted Days Wasted Nights
TTITLE6=Jerry Lee Lewis - Another Place, Another Time
TTITLE7=Carl Perkins - Daddy Sang Bass
TTITLE8=Johnny Paycheck - Heartaches By The Number
TTITLE9=Jim Reeves - Making Believe
TTITLE10=Waylon Jennings - Dream Baby
TTITLE11=Don Williams - Follow Me Back From Louisville
TTITLE12=Stonewall Jackson - Ol' Blue
TTITLE13=Johnny Paycheck - Crazy Arms
TTITLE14=Jim Reeves - I'm Beginning To Forget You
TTITLE15=Jerry Lee Lewis - You Win Again
EXTD=
EXTT0=
EXTT1=
EXTT2=
EXTT3=
EXTT4=
EXTT5=
EXTT6=
EXTT7=
EXTT8=
EXTT9=
EXTT10=
EXTT11=
EXTT12=
EXTT13=
EXTT14=
EXTT15=
PLAYORDER=
